<?xml version="1.0" standalone="no"?>
<!DOCTYPE svg PUBLIC "-//W3C//DTD SVG 20010904//EN"
 "http://www.w3.org/TR/2001/REC-SVG-20010904/DTD/svg10.dtd">
<svg version="1.0" xmlns="http://www.w3.org/2000/svg"
 width="200.000000pt" height="200.000000pt" viewBox="0 0 200.000000 200.000000"
 preserveAspectRatio="xMidYMid meet">
<metadata>
Created by potrace 1.14, written by Peter Selinger 2001-2017
</metadata>
<g transform="translate(0.000000,200.000000) scale(0.100000,-0.100000)"
fill="#000000" stroke="none">
<path d="M317 1151 c49 -8 67 -21 83 -60 11 -28 9 -47 -15 -116 -3 -11 1 -7
11 10 9 16 18 49 18 73 1 37 -4 48 -32 73 -24 22 -41 29 -70 28 l-37 -2 42 -6z"/>
<path d="M237 1139 c-23 -13 -47 -62 -47 -94 0 -14 7 -40 16 -58 31 -60 95
-147 108 -147 12 0 72 97 64 105 -2 2 -14 -16 -27 -41 -13 -24 -29 -44 -36
-44 -7 0 -35 32 -61 71 -41 59 -49 79 -49 116 0 38 5 49 33 74 32 29 32 37 -1
18z"/>
<path d="M510 1080 c0 -5 5 -10 10 -10 6 0 10 5 10 10 0 6 -4 10 -10 10 -5 0
-10 -4 -10 -10z"/>
<path d="M556 1013 c3 -43 10 -82 14 -87 16 -17 30 6 30 50 0 24 5 44 10 44 6
0 10 -17 10 -37 0 -44 15 -73 28 -58 14 15 25 165 12 165 -5 0 -10 -17 -10
-37 0 -57 -16 -73 -23 -23 -10 73 -23 69 -35 -11 l-9 -54 -8 63 c-11 90 -27
78 -19 -15z"/>
<path d="M930 1071 c0 -11 -6 -22 -12 -24 -10 -4 -10 -6 0 -6 8 -1 12 -20 12
-61 0 -33 4 -60 10 -60 6 0 10 26 10 59 0 38 4 61 13 64 10 4 10 6 0 6 -7 1
-13 10 -13 21 0 11 -4 20 -10 20 -5 0 -10 -9 -10 -19z"/>
<path d="M992 1007 c-2 -89 10 -110 22 -39 3 22 12 45 20 51 15 13 15 13 29
-79 3 -14 5 1 6 33 1 67 -19 87 -50 48 -18 -22 -18 -22 -22 26 -2 29 -4 13 -5
-40z"/>
<path d="M699 1034 c-7 -9 -13 -31 -13 -49 0 -18 6 -40 13 -49 17 -20 55 -21
71 -1 18 21 6 29 -20 13 -18 -11 -23 -11 -36 6 -22 31 -17 36 31 36 46 0 53 7
35 41 -13 24 -62 26 -81 3z m61 -9 c11 -13 7 -15 -25 -15 -32 0 -36 2 -25 15
7 8 18 15 25 15 7 0 18 -7 25 -15z"/>
<path d="M817 1043 c-4 -3 -7 -13 -7 -21 0 -12 4 -12 20 3 16 15 22 15 35 5
22 -19 19 -43 -5 -35 -32 10 -62 -12 -58 -43 3 -25 7 -27 51 -28 l47 -2 0 45
c0 59 -14 83 -49 83 -15 0 -31 -3 -34 -7z m52 -72 c7 -5 10 -14 7 -20 -10 -16
-56 -14 -56 2 0 26 23 35 49 18z"/>
<path d="M1100 1024 c-14 -36 -12 -56 6 -82 19 -27 45 -28 69 -2 20 22 14 26
-14 8 -24 -15 -51 -4 -51 22 0 17 6 20 40 20 32 0 40 4 40 18 0 26 -20 42 -52
42 -21 0 -31 -6 -38 -26z m70 1 c11 -13 7 -15 -25 -15 -32 0 -36 2 -25 15 7 8
18 15 25 15 7 0 18 -7 25 -15z"/>
<path d="M1216 1038 c-4 -9 -3 -41 2 -70 5 -29 10 -41 11 -27 3 68 51 127 51
63 0 -14 4 -23 10 -19 14 9 12 41 -3 53 -10 9 -19 8 -34 -3 -19 -14 -22 -13
-26 2 -4 17 -4 17 -11 1z"/>
<path d="M513 985 c0 -33 2 -45 4 -27 2 18 2 45 0 60 -2 15 -4 0 -4 -33z"/>
</g>
</svg>
